<?xml version="1.0" encoding="utf-8"?>
<!-- Generator: Adobe Illustrator 16.0.0, SVG Export Plug-In . SVG Version: 6.00 Build 0)  -->
<!DOCTYPE svg PUBLIC "-//W3C//DTD SVG 1.1//EN" "http://www.w3.org/Graphics/SVG/1.1/DTD/svg11.dtd">
<svg version="1.1" id="Calque_1" xmlns="http://www.w3.org/2000/svg" xmlns:xlink="http://www.w3.org/1999/xlink" x="0px" y="0px"
	 width="1280px" height="800px" viewBox="0 0 1280 800" enable-background="new 0 0 1280 800" xml:space="preserve">
<path fill="#E6E6E6" stroke="#B3B3B3" stroke-miterlimit="10" d="M1226.5,64.5c0,2.761-2.238,7-5,7h-252c-2.762,0-5-2.238-5-5V44.5
	c0-2.761,2.238-5,5-5h252c2.762,0,5,2.238,5,5V64.5z"/>
<path fill="#CCCCCC" stroke="#999999" stroke-miterlimit="10" d="M1227.5,44c0-2.761-1.738-4.5-4.5-4.5h-29.762
	c-2.762,0-2.785,0.261-2.762,0l0.023,27.261c0,4.761-0.023,4.739,2.738,4.739H1223c2.762,0,4.5-4.739,4.5-7.5V44z"/>
<path fill="none" stroke="#FF1D25" stroke-width="5" stroke-miterlimit="10" d="M597.343,685.826c0,0,33.753-3.75,41.25-57.747
	c0,0-33.527-8.999,2.734-16.499s-23.249-3-21.992-23.999s18.823,16.56,33.722,6S632.657,564.09,640,551.583
	s-5.906-11.515-9.657-12.507s16.754-2.008,25.25-8.25s-15.499-14.26-25.25-23s5.252-13.209,8.25-17.725s-19.501-3.015-25.501-10.515
	s16.504-1.5,25.501-9s-3.528-2.999,2.734-10.499s-1.234,4.5-19.234,0s7.75-1.512,16.5-16.262s7.325-26.896,22.995-23.4
	s-31.99-13.363,1.755-7.85s-23.746-6.486-7.75-25.985c15.996-19.499,18.493-15,5.995-22.499s-9.491-10.5,1.755-10.5
	s-17.246,0-8.25-10.5s-19.495-3,8.25-29.999s-20.246,15.459-8.25-25.269s-4.187-19.771-19.344-27.25
	c-15.158-7.479,29.337-4.479,25.839-34.477s-16.994-13.5-31.245-28.499s14.754-23.552,25-41.774"/>
<rect x="109" y="29" fill="#F18D05" width="51" height="51"/>
<rect x="396" y="29" fill="#32742C" width="51" height="51"/>
<rect x="253" y="29" fill="#D0D102" width="51" height="51"/>
<rect x="326" y="29" fill="#00A1CB" width="51" height="51"/>
<rect x="183" y="30" fill="#01A4A4" width="51" height="51"/>
<rect x="37" y="29" fill="#E54028" width="51" height="51"/>
<path id="Alsace" opacity="0.5" fill="#D0D102" d="M824,77c0,0-23.754,23.494-30.247,72.844c0,0-28.57,11.688-33.766,24.675
	s-2.597,19.48-18.182,35.065s-25.974,22.078-22.078,70.13c0,0-9.091,2.597-9.091,12.987s-6.495,23.376-7.793,50.649
	s-2.598,20.779-10.39,28.571c0,0-6.493,46.754-24.675,66.234c0,0-16.884,49.351,14.285,68.831c0,0,0,12.986-6.493,24.675
	s-12.986,29.87-5.194,38.961s-19.48,18.183-1.299,48.053s-38.78-9.088,15.584,54.545c8.964,10.492-15.896,25.974-24.831,25.974
	s11.532,23.377,0,25.975s-33.507-10.39-10.831,10.39s-31.871,2.598-48.753,11.688s-33.766,9.091-28.571-11.688
	s-5.195-6.493-15.584-9.091s6.494-16.883-23.376-40.26s-22.079-19.48-12.987-40.26s-44.155-40.26-55.844-40.26
	s-2.598-19.479,15.584-16.883s-6.494-36.364,5.195-63.637s41.559-45.455,32.468-63.637s14.286-29.87,28.571-80.519
	c14.286-50.649-31.169,16.883-33.766-22.078s27.272-58.441-6.494-63.636s18.01-19.504,37.663-19.48
	c7.371,0.009,24.676-14.286,15.584-25.974s14.286-2.598-1.299-46.753s6.493-18.182,12.987-23.376s-25.974-33.766-38.961-23.376
	s3.896,0-28.571,18.182s-2.597-16.883,5.195-27.273s-29.87,0-41.559-12.987s12.987-25.975,18.182-27.273s3.896-40.26,16.883-49.351
	s-1.299,31.169,33.766,28.572s32.468,15.584,63.637,9.091c10.937-2.278,23.376,27.272,33.766,6.493
	c10.389-20.779,24.131-54.375,51.948-45.495c8.405,2.683,36.799,9.484,50.649-7.785C745.701,35.559,754.792,69.325,824,77z"/>
<circle fill="#32742C" cx="597.343" cy="685.826" r="8.25"/>
<circle fill="#32742C" cx="647.343" cy="530.826" r="8.25"/>
<circle fill="#32742C" cx="655.343" cy="507.826" r="8.25"/>
<circle fill="#32742C" cx="630.343" cy="443.826" r="8.25"/>
<circle fill="#32742C" cx="647.343" cy="420.826" r="8.25"/>
<circle fill="#32742C" cx="663.343" cy="287.826" r="8.25"/>
<circle fill="#32742C" cx="663.343" cy="268.826" r="8.25"/>
<circle fill="#32742C" cx="655.343" cy="155.826" r="8.25"/>
<circle fill="#E54028" cx="702.337" cy="187.851" r="9.75"/>
<circle fill="#E54028" cx="671.337" cy="677.852" r="9.75"/>
<circle fill="#E54028" cx="655.337" cy="499.852" r="9.75"/>
</svg>
